<?xml version="1.0" encoding="utf-8"?>
<!-- Generator: Adobe Illustrator 29.8.2, SVG Export Plug-In . SVG Version: 9.03 Build 0)  -->
<svg version="1.0" id="Ebene_1" xmlns="http://www.w3.org/2000/svg" xmlns:xlink="http://www.w3.org/1999/xlink" x="0px" y="0px"
	 viewBox="0 0 275.74 120.06" style="enable-background:new 0 0 275.74 120.06;" xml:space="preserve">
<style type="text/css">
	.st0{clip-path:url(#SVGID_00000031888541339576082600000006104277520561887922_);fill:#0088AB;}
	.st1{fill:#0088AB;}
	.st2{clip-path:url(#SVGID_00000162354475545640219770000002994257422823471770_);fill:#0088AB;}
	.st3{clip-path:url(#SVGID_00000134965949114901493140000017651229970910565812_);fill:#0088AB;}
	.st4{fill:#FFFFFF;}
</style>
<g>
	<defs>
		<rect id="SVGID_1_" x="11.51" y="13.71" width="255.9" height="85.33"/>
	</defs>
	<clipPath id="SVGID_00000137854624378928482660000005227604850062534312_">
		<use xlink:href="#SVGID_1_"  style="overflow:visible;"/>
	</clipPath>
	<path style="clip-path:url(#SVGID_00000137854624378928482660000005227604850062534312_);fill:#0088AB;" d="M11.51,87.26h77.58
		c-1.5,0.91-3.04,1.77-4.61,2.58H16.12C14.55,89.04,13.01,88.18,11.51,87.26"/>
	<path style="clip-path:url(#SVGID_00000137854624378928482660000005227604850062534312_);fill:#0088AB;" d="M81.05,91.5
		c-1.89,0.85-3.82,1.63-5.8,2.33H25.34c-1.97-0.7-3.9-1.47-5.8-2.33H81.05z"/>
	<path style="clip-path:url(#SVGID_00000137854624378928482660000005227604850062534312_);fill:#0088AB;" d="M69.96,95.48
		c-5.49,1.49-11.23,2.37-17.14,2.57h-5.05c-5.91-0.19-11.65-1.08-17.14-2.57H69.96z"/>
</g>
<polygon class="st1" points="49.53,13.72 13.22,28.33 13.22,33.16 49.39,18.37 49.55,18.31 49.7,18.37 85.86,33.16 85.86,28.33 "/>
<g>
	<defs>
		<rect id="SVGID_00000019653635888719172600000000283527781749122484_" x="11.51" y="13.71" width="255.9" height="85.33"/>
	</defs>
	<clipPath id="SVGID_00000050631084824926476360000017789690576325733813_">
		<use xlink:href="#SVGID_00000019653635888719172600000000283527781749122484_"  style="overflow:visible;"/>
	</clipPath>
	<path style="clip-path:url(#SVGID_00000050631084824926476360000017789690576325733813_);fill:#0088AB;" d="M51.51,42.31v1.1
		c0,0.82-0.6,1.07-1.17,1.14c-0.26,0.03-0.45,0.03-0.75,0.01v2.2h7.95v-2.02c0,0-1.61,0.06-2.17-0.53c-0.38-0.4-0.44-1.07-0.44-1.4
		v-3.18c0-0.51,0.46-1.39,2.06-1.39c0.36,0.01,0.21,0.01,0.55,0.01v-2.08H49.3v2.03c0.16,0,0.33,0.02,0.51,0.02
		c0.59,0.05,0.85,0.05,1.05,0.18c0.28,0.21,0.54,0.65,0.54,0.97v1.04h-5.36v-1.04c0-0.32,0.26-0.76,0.55-0.97
		c0.2-0.14,0.47-0.14,1.06-0.18c0.18,0,0.34-0.02,0.51-0.02v-2.03h-8.24v2.08c0.35,0,0.19,0,0.56-0.01c1.6,0,2.06,0.88,2.06,1.39
		v3.18c0,0.33-0.07,1-0.44,1.4c-0.56,0.59-2.17,0.53-2.17,0.53v2.02h7.95v-2.2c-0.3,0.01-0.49,0.01-0.75-0.01
		c-0.57-0.06-1.17-0.32-1.17-1.14v-1.1H51.51z"/>
	<path style="clip-path:url(#SVGID_00000050631084824926476360000017789690576325733813_);fill:#0088AB;" d="M39.32,69.43
		c-0.01,0.43-0.1,0.5-0.4,0.51c-0.15,0.01-0.24-0.03-0.35,0.06c-0.08,0.06-0.14,0.13-0.14,0.23c0,0.25,0,0.47-0.01,0.64h3.15v-0.57
		c0,0-0.04-0.17-0.12-0.24c-0.11-0.1-0.22-0.08-0.37-0.08c-0.12,0-0.21-0.01-0.26-0.02c-0.14-0.04-0.21-0.15-0.19-0.42v-2.76
		c0,0-0.1-0.26-0.42-0.26c-0.29,0-0.36,0.18-0.36,0.18c-0.09,0.16-0.16,0.32-0.63,0.42c-0.11,0.02-0.35,0.03-0.6,0.05
		c0,0-0.34,0.09-0.34,0.41c0,0.37,0.4,0.41,0.4,0.41h0.64V69.43z"/>
	<path style="clip-path:url(#SVGID_00000050631084824926476360000017789690576325733813_);fill:#0088AB;" d="M52.91,69.58
		c-0.1,0.12-0.11,0.45-0.27,0.45c-0.14,0-1.79-0.01-1.8,0.01c0.02-0.38,0.5-0.57,0.52-0.58c0.44-0.2,0.89-0.17,1.17-0.27
		c0.14-0.05,1.04-0.22,1.04-1.29c0-0.16-0.19-0.57-0.53-0.87c-0.44-0.4-1.2-0.41-1.43-0.41c-1.15,0-1.55,0.46-1.69,0.67
		c-0.17,0.23-0.55,1.1,0.15,1.28c0.45,0.12,0.74-0.01,0.85-0.4c0.02-0.09,0.09-0.49-0.09-0.56c-0.03-0.01,0.74-0.61,1.15,0.08
		c0.33,0.55-0.4,0.94-0.5,0.98c-0.77,0.34-1.06,0.55-1.34,0.85c-0.4,0.4-0.45,0.99-0.49,1.49c0,0,3.33-0.01,3.49-0.02
		c0.61-0.02,0.42-0.75,0.38-1.28C53.5,69.46,53.08,69.38,52.91,69.58"/>
	<path style="clip-path:url(#SVGID_00000050631084824926476360000017789690576325733813_);fill:#0088AB;" d="M44.77,70.18
		c-0.26-0.55-0.91-0.56-1.12-0.28c-0.39,0.53,0.23,0.9,0.38,0.97c0.43,0.2,0.94,0.2,1.08,0.2c1.08,0,1.63-0.38,1.94-0.7
		c0.43-0.46,0.55-0.99,0.55-1.6c0-0.49-0.08-0.99-0.38-1.42c-0.05-0.07-0.16-0.23-0.36-0.37c-0.26-0.2-0.79-0.46-1.6-0.46
		c-0.9,0-1.44,0.48-1.68,0.75c-0.26,0.31-0.29,0.64-0.29,0.78c0,0.63,0.45,1.1,1.06,1.28c0.28,0.09,0.54,0.13,0.64,0.13
		c0.64,0,0.91-0.1,1.16-0.27c0.05,0.3,0.16,0.4-0.17,0.79c-0.21,0.24-0.57,0.34-0.91,0.34C44.88,70.32,44.86,70.35,44.77,70.18
		 M44.69,67.98c0.01-0.14,0.04-0.22,0.07-0.29c0.11-0.22,0.34-0.35,0.61-0.35c0.06,0,0.22,0.01,0.38,0.09
		c0.17,0.09,0.34,0.24,0.34,0.6c0,0.26-0.04,0.49-0.32,0.65c-0.12,0.07-0.25,0.11-0.4,0.11c-0.08,0-0.24-0.01-0.42-0.12
		C44.68,68.49,44.66,68.25,44.69,67.98"/>
	<path style="clip-path:url(#SVGID_00000050631084824926476360000017789690576325733813_);fill:#0088AB;" d="M58.34,67.51
		c0.26,0.55,0.91,0.56,1.12,0.28c0.39-0.53-0.23-0.9-0.38-0.97c-0.43-0.2-0.94-0.2-1.08-0.2c-1.08,0-1.63,0.38-1.94,0.7
		c-0.43,0.46-0.55,0.99-0.55,1.6c0,0.49,0.08,0.99,0.38,1.42c0.05,0.07,0.16,0.23,0.36,0.37c0.26,0.2,0.79,0.47,1.6,0.47
		c0.9,0,1.44-0.48,1.68-0.76c0.26-0.31,0.29-0.64,0.29-0.78c0-0.63-0.45-1.1-1.06-1.28c-0.28-0.09-0.54-0.13-0.64-0.13
		c-0.63,0-0.91,0.1-1.15,0.27c-0.05-0.3-0.16-0.4,0.17-0.79c0.21-0.24,0.57-0.34,0.91-0.34C58.23,67.37,58.25,67.34,58.34,67.51
		 M58.41,69.71c-0.02,0.14-0.04,0.22-0.07,0.29c-0.11,0.22-0.34,0.35-0.61,0.35c-0.06,0-0.22-0.01-0.38-0.09
		c-0.17-0.09-0.34-0.24-0.34-0.6c0-0.26,0.04-0.49,0.32-0.65c0.12-0.07,0.25-0.11,0.4-0.11c0.08,0,0.24,0.01,0.42,0.12
		C58.43,69.2,58.44,69.45,58.41,69.71"/>
	<path style="clip-path:url(#SVGID_00000050631084824926476360000017789690576325733813_);fill:#0088AB;" d="M61.2,57.26h3.12
		c0.47,0.01,0.9,0.02,1.28,0.23c0.5,0.29,0.53,0.7,0.53,0.86c0,0.24-0.08,0.92-1.02,1.09c-0.24,0.05-0.43,0.05-0.66,0.06H61.2V57.26
		z M61.2,53.03h2.79c0.47,0.01,0.9,0.02,1.28,0.23c0.51,0.28,0.54,0.7,0.54,0.86c0,0.24-0.08,0.91-1.02,1.09
		c-0.24,0.05-0.42,0.05-0.66,0.06H61.2V53.03z M63.2,50.94h-8.23v2.08c0.34,0,0.19,0,0.55-0.01c1.6,0,2.06,0.88,2.06,1.39v3.18
		c0,0.33-0.07,1-0.44,1.4c-0.56,0.59-2.17,0.53-2.17,0.53v2.02h7.95l0.89,0h2.13c1.13-0.05,2.22-0.09,3.15-0.67
		c1.13-0.7,1.05-1.53,1.05-1.98c0-0.35,0.08-1.06-0.78-1.76c-0.64-0.5-0.96-0.61-1.9-0.82c0.79-0.24,1.06-0.38,1.4-0.62
		c0.89-0.65,1.02-1.14,1.02-2.03c0-0.67-0.49-1.39-0.64-1.6c-0.44-0.6-1.23-1.04-2.98-1.1h-2.14L63.2,50.94z"/>
	<path style="clip-path:url(#SVGID_00000050631084824926476360000017789690576325733813_);fill:#0088AB;" d="M34.82,59.14v-5.01
		c0-0.51,0.46-1.39,2.06-1.39c0.37,0.01,0.21,0.01,0.55,0.01v-2.07h-4.29h-4.2v2.07c0.34,0,0.19,0,0.55-0.01
		c1.6,0,2.06,0.88,2.06,1.39v3.18c0,0.33-0.07,1-0.44,1.4c-0.56,0.59-2.17,0.53-2.17,0.53v2.02h12.93l0.03-3.94l-1.86,0.01
		c0,0,0.21,1.61-1.93,1.82C36.32,59.13,34.82,59.14,34.82,59.14"/>
</g>
<path class="st1" d="M49.54,23l30.91,30.91L49.54,84.82L18.63,53.91L49.54,23z M83.25,53.91L49.54,20.2L15.83,53.91l33.71,33.71
	L83.25,53.91z"/>
<path class="st1" d="M18.64,53.91L49.54,23l30.91,30.91L49.54,84.82L18.64,53.91z M49.54,20.2L15.83,53.91l33.71,33.71l33.71-33.71
	L49.54,20.2z"/>
<rect x="103.58" y="44.37" class="st1" width="3.25" height="26.92"/>
<g>
	<defs>
		<rect id="SVGID_00000041290340240692407610000006128403739898743971_" x="11.51" y="13.71" width="255.9" height="85.33"/>
	</defs>
	<clipPath id="SVGID_00000016794144262339141520000003101784657888527805_">
		<use xlink:href="#SVGID_00000041290340240692407610000006128403739898743971_"  style="overflow:visible;"/>
	</clipPath>
	<path style="clip-path:url(#SVGID_00000016794144262339141520000003101784657888527805_);fill:#0088AB;" d="M128.42,61.96h-14.24
		c0,1.19,0.18,2.22,0.54,3.11c0.36,0.88,0.85,1.61,1.47,2.17c0.6,0.56,1.31,0.97,2.14,1.25c0.83,0.28,1.73,0.41,2.72,0.41
		c1.32,0,2.64-0.26,3.97-0.78c1.33-0.52,2.28-1.04,2.85-1.55h0.17v3.54c-1.1,0.46-2.21,0.85-3.36,1.16
		c-1.14,0.31-2.34,0.47-3.6,0.47c-3.21,0-5.71-0.87-7.51-2.6c-1.8-1.73-2.7-4.2-2.7-7.39c0-3.16,0.86-5.67,2.59-7.53
		c1.72-1.86,3.99-2.78,6.81-2.78c2.61,0,4.61,0.76,6.03,2.28c1.41,1.52,2.12,3.69,2.12,6.49V61.96z M125.26,59.47
		c-0.01-1.71-0.44-3.03-1.29-3.96c-0.85-0.93-2.14-1.4-3.87-1.4c-1.74,0-3.13,0.51-4.16,1.54c-1.03,1.03-1.62,2.3-1.76,3.82H125.26z
		"/>
	<path style="clip-path:url(#SVGID_00000016794144262339141520000003101784657888527805_);fill:#0088AB;" d="M148.73,71.29h-3.25
		v-11c0-0.89-0.06-1.72-0.16-2.5c-0.1-0.78-0.29-1.39-0.57-1.83c-0.29-0.48-0.7-0.84-1.24-1.08c-0.54-0.24-1.24-0.36-2.11-0.36
		c-0.89,0-1.82,0.22-2.78,0.66c-0.97,0.44-1.9,1-2.79,1.68v14.43h-3.25V44.37h3.25v9.74c1.01-0.84,2.06-1.5,3.15-1.97
		c1.08-0.47,2.2-0.71,3.34-0.71c2.09,0,3.68,0.63,4.77,1.89c1.09,1.26,1.65,3.07,1.65,5.43V71.29z"/>
	<path style="clip-path:url(#SVGID_00000016794144262339141520000003101784657888527805_);fill:#0088AB;" d="M165.81,55.51h-0.17
		c-0.48-0.12-0.95-0.2-1.41-0.25c-0.46-0.05-1-0.08-1.62-0.08c-1,0-1.97,0.22-2.91,0.67c-0.93,0.44-1.83,1.02-2.7,1.72v13.72h-3.25
		V51.97h3.25v2.85c1.29-1.04,2.43-1.77,3.42-2.21c0.99-0.43,1.99-0.65,3.02-0.65c0.56,0,0.97,0.01,1.23,0.04
		c0.25,0.03,0.63,0.08,1.14,0.17V55.51z"/>
	<path style="clip-path:url(#SVGID_00000016794144262339141520000003101784657888527805_);fill:#0088AB;" d="M185.25,61.96h-14.24
		c0,1.19,0.18,2.22,0.54,3.11c0.36,0.88,0.85,1.61,1.47,2.17c0.6,0.56,1.31,0.97,2.13,1.25c0.82,0.28,1.74,0.41,2.73,0.41
		c1.31,0,2.64-0.26,3.97-0.78c1.33-0.52,2.28-1.04,2.85-1.55h0.17v3.54c-1.1,0.46-2.21,0.85-3.36,1.16
		c-1.14,0.31-2.34,0.47-3.6,0.47c-3.21,0-5.71-0.87-7.51-2.6c-1.8-1.73-2.7-4.2-2.7-7.39c0-3.16,0.86-5.67,2.59-7.53
		c1.73-1.86,3.99-2.78,6.81-2.78c2.61,0,4.62,0.76,6.03,2.28c1.41,1.52,2.12,3.69,2.12,6.49V61.96z M182.09,59.47
		c-0.02-1.71-0.44-3.03-1.29-3.96c-0.85-0.93-2.14-1.4-3.87-1.4c-1.74,0-3.12,0.51-4.16,1.54c-1.03,1.03-1.62,2.3-1.76,3.82H182.09z
		"/>
	<path style="clip-path:url(#SVGID_00000016794144262339141520000003101784657888527805_);fill:#0088AB;" d="M201.46,55.51h-0.17
		c-0.48-0.12-0.95-0.2-1.41-0.25c-0.45-0.05-0.99-0.08-1.61-0.08c-1,0-1.97,0.22-2.91,0.67c-0.93,0.44-1.84,1.02-2.7,1.72v13.72
		h-3.25V51.97h3.25v2.85c1.29-1.04,2.43-1.77,3.42-2.21c0.99-0.43,1.99-0.65,3.02-0.65c0.56,0,0.97,0.01,1.23,0.04
		c0.25,0.03,0.63,0.08,1.14,0.17V55.51z"/>
	<path style="clip-path:url(#SVGID_00000016794144262339141520000003101784657888527805_);fill:#0088AB;" d="M221.13,61.48
		c0,1.61-0.23,3.07-0.68,4.36c-0.46,1.29-1.07,2.37-1.84,3.25c-0.82,0.91-1.72,1.59-2.7,2.05c-0.98,0.45-2.06,0.69-3.24,0.69
		c-1.1,0-2.05-0.13-2.87-0.39c-0.82-0.26-1.63-0.61-2.42-1.05l-0.21,0.9h-3.04V44.37h3.25v9.62c0.91-0.75,1.88-1.37,2.91-1.84
		c1.03-0.48,2.18-0.72,3.46-0.72c2.29,0,4.09,0.88,5.4,2.63C220.47,55.81,221.13,58.29,221.13,61.48 M217.77,61.57
		c0-2.3-0.38-4.05-1.14-5.25c-0.76-1.19-1.99-1.79-3.68-1.79c-0.95,0-1.9,0.2-2.87,0.61c-0.97,0.41-1.87,0.94-2.7,1.58v11.07
		c0.92,0.42,1.72,0.7,2.38,0.86c0.66,0.17,1.42,0.25,2.26,0.25c1.8,0,3.21-0.59,4.23-1.77C217.26,65.95,217.77,64.09,217.77,61.57"
		/>
	<path style="clip-path:url(#SVGID_00000016794144262339141520000003101784657888527805_);fill:#0088AB;" d="M240.35,71.29h-3.23
		v-2.06c-0.29,0.19-0.68,0.47-1.17,0.82c-0.49,0.35-0.96,0.63-1.43,0.84c-0.54,0.27-1.16,0.49-1.87,0.67
		c-0.7,0.17-1.53,0.26-2.47,0.26c-1.74,0-3.22-0.58-4.43-1.73c-1.21-1.15-1.81-2.62-1.81-4.41c0-1.47,0.31-2.65,0.94-3.56
		c0.63-0.91,1.52-1.62,2.69-2.14c1.18-0.52,2.59-0.87,4.24-1.06c1.65-0.19,3.42-0.32,5.31-0.42v-0.5c0-0.74-0.13-1.35-0.39-1.83
		c-0.26-0.49-0.63-0.87-1.11-1.14c-0.46-0.26-1.01-0.44-1.66-0.53c-0.65-0.09-1.32-0.14-2.02-0.14c-0.85,0-1.81,0.11-2.85,0.34
		c-1.05,0.23-2.13,0.55-3.25,0.98h-0.17v-3.3c0.64-0.17,1.55-0.36,2.75-0.57c1.2-0.21,2.38-0.31,3.55-0.31
		c1.36,0,2.54,0.11,3.56,0.34c1.01,0.22,1.88,0.61,2.62,1.15c0.72,0.53,1.28,1.22,1.66,2.06c0.38,0.84,0.57,1.89,0.57,3.13V71.29z
		 M237.11,66.53v-5.38c-0.99,0.06-2.16,0.14-3.5,0.26c-1.35,0.12-2.41,0.28-3.2,0.5c-0.93,0.27-1.69,0.68-2.26,1.23
		c-0.58,0.56-0.87,1.33-0.87,2.31c0,1.11,0.33,1.94,1,2.5c0.67,0.56,1.69,0.84,3.06,0.84c1.14,0,2.19-0.22,3.13-0.67
		C235.43,67.69,236.31,67.15,237.11,66.53"/>
	<path style="clip-path:url(#SVGID_00000016794144262339141520000003101784657888527805_);fill:#0088AB;" d="M261.37,71.29h-3.26
		v-2.14c-1.09,0.86-2.14,1.53-3.15,1.99c-1,0.46-2.11,0.69-3.32,0.69c-2.03,0-3.61-0.62-4.74-1.86c-1.13-1.24-1.7-3.06-1.7-5.46
		V51.97h3.25v11c0,0.98,0.05,1.82,0.14,2.52c0.09,0.7,0.29,1.3,0.59,1.79c0.31,0.51,0.71,0.87,1.21,1.1
		c0.5,0.23,1.22,0.35,2.17,0.35c0.84,0,1.76-0.22,2.76-0.66c1-0.44,1.93-1,2.79-1.68V51.97h3.26V71.29z"/>
</g>
<rect x="103.69" y="79.62" class="st1" width="157.67" height="18.42"/>
<g>
	<path class="st4" d="M114.42,86.94l-1.61,1.15l-1.01-1.54l2.89-1.88h2v8.51h-2.27V86.94z"/>
	<path class="st4" d="M128.29,88.93c0-2.21,0.49-4.4,3.3-4.4c2.82,0,3.3,2.19,3.3,4.4s-0.49,4.4-3.3,4.4
		C128.78,93.33,128.29,91.14,128.29,88.93z M132.7,88.93c0-1.35-0.09-2.87-1.11-2.87c-1.02,0-1.11,1.51-1.11,2.87
		s0.09,2.87,1.11,2.87C132.62,91.8,132.7,90.28,132.7,88.93z"/>
	<path class="st4" d="M145.68,88.93c0-2.21,0.49-4.4,3.3-4.4s3.3,2.19,3.3,4.4s-0.49,4.4-3.3,4.4S145.68,91.14,145.68,88.93z
		 M150.09,88.93c0-1.35-0.08-2.87-1.11-2.87s-1.11,1.51-1.11,2.87s0.08,2.87,1.11,2.87S150.09,90.28,150.09,88.93z"/>
	<path class="st4" d="M176.1,91.22c0.28,0.13,0.63,0.21,1.02,0.21c0.67,0,1.16-0.48,1.16-1.87v-4.89h2.27v5.57
		c0,1.83-0.74,3.08-3.05,3.08c-0.5,0-1.01-0.13-1.4-0.23V91.22z"/>
	<path class="st4" d="M194.08,84.68h2.78l3.28,8.51h-2.49l-0.63-1.82h-3.19l-0.67,1.82h-2.3L194.08,84.68z M195.47,86.43h-0.02
		l-1.1,3.33h2.13L195.47,86.43z"/>
	<path class="st4" d="M210.8,84.68h2.27v3.25h2.68v-3.25h2.27v8.51h-2.27v-3.65h-2.68v3.65h-2.27V84.68z"/>
	<path class="st4" d="M229.39,84.68h4.05c1.51,0,2.74,0.68,2.74,2.15c0,1.13-0.54,1.89-1.63,2.15v0.02c0.73,0.2,0.78,0.84,1.21,1.88
		l0.83,2.32h-2.37l-0.49-1.54c-0.46-1.46-0.76-1.83-1.6-1.83h-0.48v3.37h-2.27V84.68z M231.66,88.21h0.6c0.73,0,1.66-0.02,1.66-0.99
		c0-0.79-0.79-0.94-1.66-0.94h-0.6V88.21z"/>
	<path class="st4" d="M247.36,84.68h6v1.61h-3.73v1.76h3.52v1.61h-3.52v1.93h3.87v1.61h-6.13V84.68z"/>
</g>
</svg>
